<svg width="48" height="49" viewBox="0 0 48 49" fill="none" xmlns="http://www.w3.org/2000/svg">
<rect y="0.5" width="48" height="48" rx="6" fill="#6366F1"/>
<path d="M15 18.5L18 19.5M18 19.5L15 28.5C16.7725 29.8334 19.2287 29.8334 21.0012 28.5M18 19.5L21.0001 28.5M18 19.5L24 17.5M30 19.5L33 18.5M30 19.5L27 28.5C28.7725 29.8334 31.2287 29.8334 33.0012 28.5M30 19.5L33.0001 28.5M30 19.5L24 17.5M24 15.5V17.5M24 33.5V17.5M24 33.5H21M24 33.5H27" stroke="white" stroke-width="2" stroke-linecap="round" stroke-linejoin="round"/>
</svg>
