<svg width="49" height="49" viewBox="0 0 49 49" fill="none" xmlns="http://www.w3.org/2000/svg">
<rect x="0.5" y="0.5" width="48" height="48" rx="6" fill="#6366F1"/>
<path d="M33.5 24.5C33.5 29.4706 29.4706 33.5 24.5 33.5M33.5 24.5C33.5 19.5294 29.4706 15.5 24.5 15.5M33.5 24.5H15.5M24.5 33.5C19.5294 33.5 15.5 29.4706 15.5 24.5M24.5 33.5C26.1569 33.5 27.5 29.4706 27.5 24.5C27.5 19.5294 26.1569 15.5 24.5 15.5M24.5 33.5C22.8431 33.5 21.5 29.4706 21.5 24.5C21.5 19.5294 22.8431 15.5 24.5 15.5M15.5 24.5C15.5 19.5294 19.5294 15.5 24.5 15.5" stroke="white" stroke-width="2" stroke-linecap="round" stroke-linejoin="round"/>
</svg>
